PathFileType	4	(X/Y/Z)	D:\TRACE\v60_Jaco2_6-2-23\JustBodyDRS_Motion1_2-v60.trc
DataRate	CameraRate	NumFrames	NumMarkers	Units	OrigDataRate	OrigDataStartFrame	OrigNumFrames
100.00	100.00	      31	9	mm	100.00	1739	      6954
Frame#	Time	front left toe			Front right toe			aft left toe			aft right toe			Arm			FL body			FR body			AL Body			AR Body			
		X1	Y1	Z1	X2	Y2	Z2	X3	Y3	Z3	X4	Y4	Z4	X5	Y5	Z5	X6	Y6	Z6	X7	Y7	Z7	X8	Y8	Z8	X9	Y9	Z9	

1739	17.380	-156.37408	24.12766	-217.61206	229.49420	23.71295	-247.65202	-91.24174	8.03941	408.78726	272.55569	6.33894	369.70480	-62.75520	1225.01453	-325.79959	-50.03049	593.83881	-356.65894	109.76886	591.27008	-372.43918	40.60304	538.56158	583.83459	196.95416	530.93933	569.21124	
1740	17.390	-156.87733	24.19633	-217.63313	229.47902	24.35386	-248.10928	-92.77692	6.74062	409.04968	271.67233	6.56449	369.66159	-64.36320	1225.54761	-325.49493	-51.40540	594.37994	-356.39017	108.19691	592.28015	-372.33661	40.05413	539.73431	583.77155	196.83037	532.17310	568.95068	
1741	17.400	-157.36034	24.23069	-218.11668	228.11537	24.71746	-247.94295	-93.12543	6.75273	410.04898	271.06046	7.07506	369.38312	-66.47141	1226.36829	-325.33621	-52.35215	594.85199	-356.20035	107.32439	592.61786	-372.10110	39.75726	541.81189	583.96521	196.46912	533.85046	568.93292	
1742	17.410	-158.05182	26.53243	-217.17456	227.01863	23.66345	-247.59886	-93.47017	6.24016	410.40805	270.23544	9.57473	369.92761	-69.27949	1226.90759	-325.28156	-53.75838	594.98615	-355.72955	106.26649	592.84723	-372.00674	39.28678	543.68951	584.31891	197.24236	535.58746	569.29211	
1743	17.420	-155.83290	29.81531	-215.17517	226.60535	23.96356	-248.01907	-94.00056	6.23963	409.69092	267.47351	12.40310	373.20471	-71.46987	1227.53699	-326.02859	-54.92528	595.73132	-355.51788	104.89408	593.93823	-371.82813	39.03831	544.52692	584.41797	195.67763	536.49225	569.27216	
1744	17.430	-152.52737	34.20547	-211.48376	226.00441	23.62242	-248.03049	-94.27439	6.40872	410.16663	264.51285	18.97540	375.63803	-73.02223	1227.54236	-326.78012	-55.93723	596.06122	-355.38428	103.67323	594.26392	-371.70724	38.50200	545.03961	584.42902	194.86394	536.96948	569.63513	
1745	17.440	-150.66803	43.61596	-210.68967	225.55516	23.39656	-248.16547	-94.98131	6.62706	409.75937	260.99814	27.58055	376.99582	-74.51168	1227.37866	-327.42752	-56.71764	595.89508	-355.34265	102.17272	594.27734	-371.57529	37.97787	545.17896	584.87036	194.07745	537.59808	569.67206	
1746	17.450	-149.82372	53.52461	-209.96596	225.02736	22.89017	-248.37587	-95.41985	6.88955	409.84265	260.22311	39.89349	375.89746	-75.36163	1227.00574	-327.32330	-58.08650	595.43628	-355.50992	102.07220	594.13312	-371.84976	37.38325	545.43646	584.87646	194.05722	538.07477	569.86377	
1747	17.460	-151.24283	64.66959	-210.89288	224.72311	22.86827	-248.19870	-95.66765	6.67037	410.05585	260.49258	52.36039	374.98264	-76.76646	1226.35779	-327.49417	-58.68614	595.01691	-355.43295	101.35755	593.85944	-371.93790	35.86971	545.68237	584.65375	192.24916	538.28149	569.94727	
1748	17.470	-153.16899	76.92332	-211.92831	224.47090	22.67270	-248.16451	-96.00901	6.42886	409.85538	263.84906	66.30302	373.91504	-77.62112	1225.57898	-327.60104	-59.10254	594.38116	-355.60364	100.86562	593.35284	-371.86777	34.58506	545.23602	584.59967	192.41315	538.20569	570.08246	
1749	17.480	-155.09500	88.84205	-213.13908	224.20296	22.41516	-248.23045	-96.46510	6.16377	409.71246	265.46616	78.81610	373.16400	-79.84406	1224.82336	-327.62701	-59.09670	593.51337	-355.78345	100.29915	592.69067	-371.91077	33.41643	545.03290	584.37903	191.65782	537.96564	569.68921	
1750	17.490	-156.75784	100.86067	-213.79614	223.82303	22.16406	-248.30936	-98.20068	6.62392	409.48007	265.89859	90.40405	372.69745	-80.91948	1224.09399	-327.86151	-59.60678	592.85431	-355.87842	99.42979	591.87720	-371.74881	31.82834	544.66980	584.42212	189.22957	537.67615	569.82385	
1751	17.500	-158.03149	112.22484	-214.03033	223.36017	21.84417	-248.34303	-98.63308	6.78517	409.37524	266.62540	102.21367	372.65796	-82.00064	1223.43054	-328.55688	-60.09016	591.87207	-356.01935	99.00067	591.29468	-371.61877	30.87275	544.50781	584.41296	187.57573	537.69678	570.32727	
1752	17.510	-159.01147	122.83187	-214.13812	222.97968	21.66702	-248.30139	-99.09540	7.22429	409.37662	264.32959	112.19402	373.10385	-82.49432	1222.66125	-329.05515	-60.75402	591.39044	-355.91071	99.41995	590.77985	-371.92584	29.72590	544.61920	584.46527	187.17352	538.09985	570.26965	
1753	17.520	-159.50772	131.72122	-214.21324	222.64691	21.45553	-248.23375	-99.23495	7.46011	409.37378	263.94885	122.33552	373.77536	-83.03183	1221.93506	-329.95654	-61.59171	590.62561	-356.14447	98.19904	590.18988	-371.83319	29.00214	544.79095	584.53131	186.07545	538.47784	570.26025	
1754	17.530	-160.67937	139.55453	-214.49889	222.38454	21.25340	-248.26355	-100.94611	8.61590	408.85840	262.89835	129.53836	373.71744	-83.69209	1221.33826	-331.03549	-62.22087	590.00787	-356.35226	97.63607	589.57928	-371.78439	27.85135	545.27289	584.56152	185.05351	538.86407	569.80634	
1755	17.540	-162.05815	145.41602	-214.34109	222.24301	21.14832	-248.22151	-101.15056	8.53872	408.75977	262.38910	134.47586	374.37936	-84.55675	1220.32922	-331.95963	-62.59282	589.02905	-356.38156	97.08842	588.70032	-371.94156	26.87055	545.52667	584.62280	183.80637	539.14166	569.73181	
1756	17.550	-164.30553	148.65332	-213.94128	222.11113	21.11522	-248.15434	-101.64534	8.76911	408.70322	262.80817	137.47470	374.71051	-85.74386	1219.46973	-332.73508	-62.93992	588.38531	-356.43750	96.16853	588.05829	-371.67578	25.41631	545.82941	584.62158	181.95166	539.51031	570.89240	
1757	17.560	-166.33569	148.89539	-212.98576	222.08115	21.14010	-248.10220	-100.24001	7.73034	409.09399	261.36584	137.35120	374.70212	-86.89397	1218.95544	-333.28244	-63.16828	587.99982	-356.40359	95.71674	587.42493	-371.36060	24.40049	546.34296	584.38885	180.97397	539.92273	571.08923	
1758	17.570	-168.32161	146.56407	-212.27252	221.99832	21.10644	-248.10760	-100.48180	8.01723	409.02087	260.74161	134.79916	375.50555	-87.50478	1218.73572	-333.98563	-63.68032	587.79041	-356.62888	96.24007	587.44427	-371.85608	23.17203	546.90869	584.52533	179.83667	540.57715	570.74670	
1759	17.580	-169.08966	142.17607	-211.82321	221.75235	20.93227	-248.25369	-100.85320	8.29912	408.87238	259.20367	130.39545	376.27435	-87.83919	1218.67383	-334.73419	-64.18098	587.53723	-356.92462	95.91680	587.21362	-371.91959	22.19092	547.50311	584.44781	179.16638	541.32672	571.11005	
1760	17.590	-169.94226	136.98119	-211.68384	221.59320	20.75488	-248.35762	-100.82281	8.22615	408.83875	258.72479	125.45509	376.94553	-88.23200	1218.61084	-335.60156	-64.60604	587.18268	-357.20633	95.61797	586.95416	-371.95447	21.03083	547.82520	584.25983	177.49187	541.62012	571.11151	
1761	17.600	-170.12247	130.15932	-211.67087	221.49071	20.64390	-248.43192	-100.69819	8.10131	408.78754	256.99503	119.19759	377.58481	-88.54897	1218.37439	-336.29129	-65.03296	586.94934	-357.43832	94.99227	586.62073	-372.31473	19.93711	548.15302	584.19293	176.44063	542.06720	570.98248	
1762	17.610	-170.78078	122.69884	-212.07056	221.49269	20.54284	-248.46677	-100.73409	8.22932	408.75861	255.08139	111.98461	378.16220	-89.13925	1218.11438	-336.86081	-65.39887	586.55084	-357.76041	94.48090	586.57867	-372.39844	18.81725	548.33862	583.86591	175.43019	542.28040	570.99475	
1763	17.620	-172.14021	114.87887	-212.79779	221.47295	20.37379	-248.62596	-101.02145	8.58566	408.65536	254.61153	104.66470	378.26126	-89.18650	1217.86975	-337.48721	-65.61953	586.56995	-357.88901	94.21815	586.44965	-372.58942	17.81499	548.62622	583.81720	174.12556	542.71832	570.70319	
1764	17.630	-173.63977	106.59444	-213.14444	221.44373	20.20999	-248.65224	-101.31068	9.09246	408.49408	252.36971	95.87079	378.35495	-89.72132	1217.79797	-337.93683	-65.81039	586.46094	-358.46985	94.10801	586.33325	-372.70285	16.69771	548.88403	583.55963	173.02255	542.93231	570.28638	
1765	17.640	-175.11354	99.32745	-214.02954	221.39960	19.96883	-248.72856	-100.04942	8.31638	408.51337	252.24371	87.17361	378.63489	-90.83303	1217.35803	-338.71045	-66.12065	586.18182	-359.03210	94.05622	586.13318	-373.04907	15.36341	549.54785	582.84772	172.30473	543.29504	570.01733	
1766	17.650	-176.55638	92.04336	-215.04584	221.39450	19.81003	-248.77039	-100.41625	8.65998	408.10831	249.32727	77.53091	378.17096	-90.76272	1217.24390	-339.78650	-66.06672	585.84644	-359.27899	93.67487	585.84296	-373.50323	14.17514	549.74536	582.49567	170.50635	543.41705	569.79382	
1767	17.660	-177.77444	83.57447	-215.86378	221.48032	19.68527	-248.84917	-100.75050	8.75296	407.93839	248.28368	68.61919	378.04895	-90.94142	1216.84021	-340.84332	-66.87132	585.27124	-359.88123	93.03137	585.46405	-374.07419	13.56305	549.64349	582.30072	169.62006	543.67181	569.51855	
1768	17.670	-178.58429	74.37340	-216.72556	221.36513	19.51057	-248.86313	-100.84277	9.02036	407.81610	245.22945	58.58443	377.75739	-91.20731	1216.42676	-342.06567	-66.98878	584.82880	-360.40616	92.75119	585.07941	-374.29736	12.15422	550.27039	581.84637	168.63733	544.01282	569.19562	
1769	17.680	-179.46149	64.71308	-217.16086	221.39877	19.40960	-248.97519	-101.09206	9.52372	407.67114	243.77899	49.95082	376.84879	-90.88577	1216.12476	-342.88254	-67.46405	584.74982	-361.01761	92.60437	584.65314	-374.76547	11.21403	550.88531	581.08661	167.61577	544.47205	568.99786	
